<svg width="1024" height="1024" viewBox="0 0 1024 1024" fill="none" xmlns="http://www.w3.org/2000/svg">
  <!-- 圆形背景 -->
  <circle cx="512" cy="512" r="512" fill="#1D7DFA"/>
  
  <!-- Nacos标志中心白色圆点 -->
  <circle cx="512" cy="512" r="280" fill="#FFFFFF"/>
  
  <!-- Nacos标志深色内圆 -->
  <circle cx="512" cy="512" r="180" fill="#1D7DFA"/>
  
  <!-- Nacos标志底部白色"N"字母 -->
  <path d="M593.92 539.2C593.92 653.12 516.16 730.88 402.24 730.88V674.56C481.92 674.56 539.52 616.96 539.52 537.28C539.52 456.64 481.92 399.04 402.24 399.04V342.72C516.16 342.72 593.92 420.48 593.92 534.4V539.2Z" fill="#FFFFFF"/>
  <path d="M650.24 539.2C650.24 653.12 572.48 730.88 458.56 730.88V674.56C538.24 674.56 595.84 616.96 595.84 537.28C595.84 456.64 538.24 399.04 458.56 399.04V342.72C572.48 342.72 650.24 420.48 650.24 534.4V539.2Z" fill="#1D7DFA"/>
</svg>